{"title":"Creature From The Black Lagoon 3D (1954) QHD Half-SBS for 3DTV -","uid":7721984,"size":3064591443,"categoryP":"video","categoryS":"3d","magnet":"?xt=urn:btih:37c2b8c088f62f47194aa5de13b385851e04f26c&amp;dn=Creature+From+The+Black+Lagoon+3D+%281954%29+QHD+Half-SBS+for+3DTV+-&amp;tr=udp%3A%2F%2Ftracker.openbittorrent.com%3A80&amp;tr=udp%3A%2F%2Fopen.demonii.com%3A1337&amp;tr=udp%3A%2F%2Ftracker.coppersurfer.tk%3A6969&amp;tr=udp%3A%2F%2Fexodus.desync.com%3A6969","seeders":0,"leechers":1,"uploader":"StoneCold448","files":1,"time":1350096479,"description":"This is Creature From The Black Lagoon 3D (1954) QHD Half-SBS for 3DTV - EVO3D made specifically for 3DTV's and handheld 3D Devices alike with Auto-3D Enabled \n(no more putting your device into 3D mode, it will read this file like a disc and do it for you)\n\n\nEncoded by the group Sick-Flix bringing EVO 3D users more content than amazon\nOver 500 Real 3D Titles from all over the Globe\n\n\nComplete name : J:3D MoviesFinal EditionCreature From The Black Lagoon 3D (1954) QHD Half-SBS for 3DTV - EVO3D.mp4\nFormat : MPEG-4\nFormat profile : Base Media / Version 2\nCodec ID : mp42\nFile size : 2.85 GiB\nDuration : 1h 19mn\nOverall bit rate mode : Variable\nOverall bit rate : 5 159 Kbps\nEncoded date : UTC 2012-10-08 03:57:37\nTagged date : UTC 2012-10-08 04:47:16\n\n\n\nVideo\nID : 1\nFormat : AVC\nFormat/Info : Advanced Video Codec\nFormat profile : &lt;a class=&quot;__cf_email__&quot; href=&quot;/cdn-cgi/l/email-protection&quot; data-cfemail=&quot;6c24050b042c205f425d&quot;&gt;[email&amp;#160;protected]&lt;/a&gt;&lt;script cf-hash='f9e31' type=&quot;text/javascript&quot;&gt;\n/* &lt;![CDATA[ */!function(){try{var t=&quot;currentScript&quot;in document?document.currentScript:function(){for(var t=document.getElementsByTagName(&quot;script&quot;),e=t.length;e--;)if(t[e].getAttribute(&quot;cf-hash&quot;))return t[e]}();if(t&amp;&amp;t.previousSibling){var e,r,n,i,c=t.previousSibling,a=c.getAttribute(&quot;data-cfemail&quot;);if(a){for(e=&quot;&quot;,r=parseInt(a.substr(0,2),16),n=2;a.length-n;n+=2)i=parseInt(a.substr(n,2),16)^r,e+=String.fromCharCode(i);e=document.createTextNode(e),c.parentNode.replaceChild(e,c)}}}catch(u){}}();/* ]]&gt; */&lt;/script&gt;\nFormat settings, CABAC : Yes\nFormat settings, ReFrames : 6 frames\nCodec ID : avc1\nCodec ID/Info : Advanced Video Coding\nDuration : 1h 19mn\nBit rate mode : Variable\nBit rate : 4 996 Kbps\nDisplay aspect ratio : 16:9\nFrame rate mode : Variable\nFrame rate : 23.976 fps\nMinimum frame rate : 23.419 fps\nMaximum frame rate : 24.390 fps\nColor space : YUV\nChroma subsampling : 4:2:0\nBit depth : 8 bits\nScan type : Progressive\nBits/(Pixel*Frame) : 0.402\nStream size : 2.76 GiB (97%)\nWriting library : x264 core 122\nEncoding settings : cabac=1 / ref=6 / deblock=1:0:0 / analyse=0x3:0x113 / me=umh / subme=7 / psy=1 / psy_rd=1.00:0.00 / mixed_ref=0 / me_range=42 / chroma_me=1 / trellis=1 / 8x8dct=1 / cqm=0 / deadzone=21,11 / fast_pskip=1 / chroma_qp_offset=-2 / threads=6 / sliced_threads=0 / nr=0 / decimate=1 / interlaced=0 / bluray_compat=0 / constrained_intra=0 / bframes=6 / b_pyramid=2 / b_adapt=2 / b_bias=0 / direct=3 / weightb=0 / open_gop=0 / weightp=2 / keyint=240 / keyint_min=24 / scenecut=40 / intra_refresh=0 / rc_lookahead=40 / rc=crf / mbtree=1 / crf=16.2 / qcomp=0.60 / qpmin=3 / qpmax=69 / qpstep=4 / frame-packing=3 / ip_ratio=1.40 / aq=1:1.00\nEncoded date : UTC 2012-10-08 03:57:37\nTagged date : UTC 2012-10-08 04:47:16\nColor primaries : BT.709-5, BT.1361, IEC 61966-2-4, SMPTE RP177\nTransfer characteristics : BT.709-5, BT.1361\nMatrix coefficients : BT.709-5, BT.1361, IEC 61966-2-4 709, SMPTE RP177\n\n\n\nAudio\nID : 2\nFormat : AAC\nFormat/Info : Advanced Audio Codec\nFormat profile : LC\nCodec ID : 40\nDuration : 1h 19mn\nBit rate mode : Variable\nBit rate : 164 Kbps\nMaximum bit rate : 320 Kbps\nChannel(s) : 2 channels\nChannel positions : Front: L R\nSampling rate : 48.0 KHz\nCompression mode : Lossy\nStream size : 92.9 MiB (3%)\nLanguage : English\nEncoded date : UTC 2012-10-08 03:57:37\nTagged date : UTC 2012-10-08 04:47:16\n\n\nSeedbox Supported, for any questions please just google Sick-Flix","torrent":{"xt":"urn:btih:37c2b8c088f62f47194aa5de13b385851e04f26c","amp;dn":"Creature+From+The+Black+Lagoon+3D+%281954%29+QHD+Half-SBS+for+3DTV+-","amp;tr":["udp%3A%2F%2Ftracker.openbittorrent.com%3A80","udp%3A%2F%2Fopen.demonii.com%3A1337","udp%3A%2F%2Ftracker.coppersurfer.tk%3A6969","udp%3A%2F%2Fexodus.desync.com%3A6969"],"infoHash":"37c2b8c088f62f47194aa5de13b385851e04f26c","infoHashBuffer":{"type":"Buffer","data":[55,194,184,192,136,246,47,71,25,74,165,222,19,179,133,133,30,4,242,108]},"announce":[],"urlList":[]}}